# xmcd
#
# Track frame offsets:
#	150
#	17779
#	38112
#	54280
#	69543
#	88814
#	105364
#	121149
#	136411
#	151288
#	167061
#	184583
#	210551
#
# Disc length: 3029 seconds
#
# Revision: 1
# Processed by: cddbd v1.5.2PL0 Copyright (c) Steve Scherf et al.
# Submitted via: audiograbber 1.83.01
#
DISCID=a40bd30d
DTITLE=Mike Lowry - Hell of a Life
DYEAR=2016
DGENRE=Country
TTITLE0=Grandpa
TTITLE1=Homemade
TTITLE2=Suicide Mission
TTITLE3=Beer Gut
TTITLE4=Haven't Forgotten
TTITLE5=All My Days
TTITLE6=Boston
TTITLE7=Dream Big
TTITLE8=Won't Let You
TTITLE9=Another Hour
TTITLE10=Gone... But Tonight
TTITLE11=Lost Love
TTITLE12=Forever
EXTD=
EXTT0=
EXTT1=
EXTT2=
EXTT3=
EXTT4=
EXTT5=
EXTT6=
EXTT7=
EXTT8=
EXTT9=
EXTT10=
EXTT11=
EXTT12=
PLAYORDER=
